<?xml version="1.0" standalone="no"?>
<!DOCTYPE svg PUBLIC "-//W3C//DTD SVG 20010904//EN"
 "http://www.w3.org/TR/2001/REC-SVG-20010904/DTD/svg10.dtd">
<svg version="1.0" xmlns="http://www.w3.org/2000/svg"
 width="5499.000000pt" height="7333.000000pt" viewBox="0 0 5499.000000 7333.000000"
 preserveAspectRatio="xMidYMid meet">

<g transform="translate(0.000000,7333.000000) scale(0.100000,-0.100000)"
fill="#000000" stroke="none">
<path d="M1241 72840 c-68 -16 -121 -74 -128 -141 -4 -43 1495 -9336 1517
-9405 25 -76 -35 -55 1402 -493 733 -224 1345 -412 1360 -417 25 -8 287 -495
2157 -4009 l2129 -4000 -167 -7 c-221 -9 -390 -24 -598 -54 -172 -24 -505 -89
-529 -102 -9 -5 103 -204 387 -685 221 -373 399 -680 398 -682 -2 -2 -409 217
-904 486 -495 269 -904 489 -909 489 -10 0 -262 -198 -505 -398 -373 -308
-599 -519 -636 -598 -15 -31 -15 -40 0 -97 34 -132 205 -446 410 -753 466
-694 1044 -1299 1548 -1621 137 -87 358 -194 491 -238 381 -125 1100 -302
1850 -454 333 -68 414 -88 315 -76 -74 9 -557 34 -894 46 -286 11 -336 10
-469 -5 -272 -31 -481 -73 -761 -153 -159 -45 -459 -150 -523 -182 l-34 -17
454 -550 c250 -302 454 -551 452 -552 -1 -2 -398 136 -881 308 l-878 311 -30
-33 c-16 -19 -100 -111 -187 -206 -430 -471 -658 -762 -658 -840 0 -158 544
-784 1070 -1231 228 -193 529 -407 747 -530 213 -120 481 -228 661 -266 411
-86 1824 -185 2645 -185 197 0 246 -8 164 -25 -59 -13 -937 -305 -1252 -417
-548 -195 -817 -298 -956 -368 -238 -119 -519 -295 -764 -479 -119 -89 -365
-292 -365 -302 0 -3 251 -111 558 -239 662 -277 650 -271 637 -276 -5 -2 -417
-44 -915 -94 -498 -50 -908 -94 -912 -98 -10 -11 -172 -367 -259 -568 -143
-334 -209 -532 -196 -585 23 -89 576 -325 1097 -467 514 -141 934 -204 1350
-205 344 0 489 24 920 153 509 152 1437 479 2054 724 77 31 141 54 143 52 2
-1 -56 -45 -129 -96 -811 -571 -1852 -1373 -2078 -1600 -147 -148 -326 -353
-465 -534 -97 -127 -345 -490 -345 -506 0 -5 33 -11 72 -14 82 -7 1101 -56
1163 -56 29 0 36 -3 25 -10 -8 -5 -385 -179 -837 -387 l-822 -378 -10 -60
c-53 -307 -111 -808 -114 -975 -3 -167 0 -176 66 -194 188 -54 651 -69 1097
-35 691 52 1266 190 1694 407 225 114 771 498 1366 962 80 62 140 107 134 99
-6 -8 -85 -104 -176 -214 -568 -690 -1181 -1489 -1314 -1713 -97 -164 -255
-484 -339 -687 -73 -176 -198 -535 -190 -543 3 -3 280 52 616 122 336 70 613
125 615 123 3 -2 -313 -262 -701 -578 l-705 -574 5 -70 c35 -424 120 -988 165
-1091 15 -35 23 -42 56 -47 138 -23 605 77 1044 223 416 138 756 286 1063 463
38 21 70 37 72 35 2 -1 -42 -115 -96 -253 -324 -813 -692 -1861 -953 -2710
-120 -393 -147 -523 -192 -915 -22 -202 -33 -905 -13 -898 8 3 239 144 514
313 587 362 570 352 563 340 -3 -6 -216 -360 -473 -788 l-467 -778 37 -82 c67
-144 282 -568 351 -692 120 -214 173 -285 213 -285 70 1 306 124 551 288 602
404 1153 929 1465 1396 75 113 187 320 238 441 19 46 20 82 -8 -525 -44 -969
-58 -1726 -53 -2860 5 -889 6 -944 27 -1115 48 -394 138 -854 240 -1235 54
-200 168 -570 179 -582 4 -4 244 298 532 671 289 373 526 676 528 672 2 -5
-472 -2273 -517 -2473 -9 -37 -8 -37 152 -224 251 -292 444 -504 630 -693 195
-198 285 -271 330 -271 121 0 550 541 944 1190 520 858 864 1731 947 2400 27
219 48 615 62 1183 4 147 9 265 12 263 2 -3 48 -96 101 -208 334 -699 704
-1267 959 -1469 40 -32 79 -62 87 -66 10 -6 21 -53 35 -153 41 -285 69 -352
209 -490 267 -264 902 -732 1376 -1012 569 -337 1143 -598 1760 -801 498 -163
1136 -317 1263 -304 70 7 155 49 188 92 50 65 65 143 63 307 l-3 148 32 33
c18 18 32 38 32 45 0 6 17 16 38 21 46 13 510 121 517 121 3 0 5 36 5 81 l0
81 69 -89 c115 -150 228 -239 413 -328 64 -31 160 -67 214 -82 94 -25 114 -27
389 -31 319 -4 405 4 554 54 103 34 242 106 322 165 76 56 223 206 265 269
l29 44 3 -82 c2 -66 6 -82 20 -86 9 -3 143 -35 297 -71 154 -36 287 -68 296
-71 15 -4 16 -19 12 -127 -9 -203 33 -309 141 -362 89 -43 142 -43 371 4 1500
305 2901 999 4078 2019 162 141 221 244 256 449 l17 104 58 24 c82 33 129 67
225 159 223 216 490 622 771 1171 59 116 136 272 171 347 34 75 66 135 69 133
4 -2 10 -158 13 -347 10 -505 34 -951 63 -1168 102 -760 528 -1756 1160 -2711
216 -326 455 -633 599 -767 79 -74 107 -89 149 -78 87 22 459 402 945 966 83
96 151 180 151 186 0 9 -488 2338 -519 2477 -5 20 -7 37 -6 37 2 0 234 -298
516 -663 282 -364 520 -671 530 -681 17 -18 19 -13 73 155 236 743 367 1439
386 2049 19 599 9 1975 -20 2850 -16 496 -46 1167 -55 1250 -7 59 4 45 55 -72
209 -483 714 -1051 1380 -1555 391 -295 767 -511 854 -489 51 13 186 244 427
730 119 239 156 323 149 336 -5 9 -216 362 -470 785 -253 422 -459 769 -458
770 2 2 244 -145 538 -326 l535 -329 9 33 c13 48 -1 649 -19 827 -41 403 -75
571 -206 991 -268 867 -597 1802 -925 2633 -63 159 -113 291 -111 293 2 2 49
-22 103 -53 365 -207 828 -395 1317 -533 305 -87 651 -148 755 -134 45 6 59
28 87 137 48 190 156 1046 135 1070 -5 6 -323 268 -708 581 -385 314 -698 572
-696 573 1 2 278 -53 614 -123 336 -70 614 -125 617 -121 10 10 -68 244 -160
476 -88 221 -265 586 -374 769 -132 222 -834 1130 -1372 1776 -104 124 -117
144 -79 115 26 -19 156 -119 290 -221 494 -378 951 -700 1138 -801 336 -182
832 -322 1395 -393 372 -47 771 -64 1065 -46 287 17 417 43 434 86 11 30 6
243 -9 397 -13 127 -104 791 -109 794 0 0 -372 171 -826 379 -454 207 -829
382 -835 386 -5 5 5 9 25 9 54 0 1086 49 1168 56 l73 6 -27 46 c-50 86 -180
275 -286 418 -253 338 -510 612 -773 824 -470 378 -1130 877 -1643 1244 -167
119 -302 216 -299 216 3 0 99 -36 214 -81 1045 -407 2112 -761 2478 -823 447
-76 1089 -14 1772 173 504 138 1035 358 1099 456 16 24 16 30 -1 98 -20 86
-102 303 -195 517 -126 291 -253 560 -264 560 -6 0 -411 41 -901 90 -489 50
-899 90 -910 90 -33 1 16 23 622 275 558 233 572 239 555 258 -31 35 -204 177
-344 283 -339 255 -722 481 -993 584 -521 199 -1249 451 -1905 662 l-135 43
355 6 c1056 20 2221 110 2569 199 404 103 882 384 1391 818 170 145 585 560
711 712 190 228 301 393 315 466 9 49 -42 135 -195 324 -149 184 -598 691
-667 752 -18 16 -62 2 -893 -293 -480 -170 -875 -308 -877 -307 -1 2 189 235
423 518 234 283 438 532 454 552 l29 36 -127 50 c-381 148 -803 254 -1188 298
-135 15 -183 16 -475 5 -342 -12 -815 -37 -889 -46 -98 -12 -21 7 265 65 791
161 1568 353 1924 475 556 191 1197 744 1795 1546 243 326 424 611 547 864 69
142 96 230 85 276 -15 58 -199 239 -507 498 -223 188 -599 490 -625 503 -17 8
-171 -73 -924 -482 -497 -270 -905 -489 -906 -488 -2 2 178 309 399 683 253
427 398 683 391 687 -13 8 -328 72 -455 92 -173 27 -352 46 -568 58 -176 10
-212 15 -207 26 13 33 4238 7968 4249 7980 7 7 572 184 1257 392 684 209 1294
396 1354 415 111 34 145 56 174 112 15 29 1521 9328 1521 9390 0 64 -33 120
-85 147 -51 26 -132 26 -174 0 -34 -22 -6882 -6438 -6925 -6490 -24 -27 -31
-46 -34 -92 -4 -54 28 -162 407 -1404 l411 -1346 -1186 -2229 c-652 -1225
-1189 -2231 -1192 -2234 -4 -4 -47 3 -95 14 -76 18 -90 18 -101 6 -7 -8 -286
-375 -620 -816 -334 -442 -611 -805 -614 -807 -9 -5 -16 -70 82 819 46 413 82
751 81 753 -4 5 -288 -58 -425 -94 -167 -44 -446 -136 -604 -199 -228 -90
-514 -230 -610 -298 l-28 -20 12 24 c7 13 29 48 48 79 51 79 144 278 186 400
198 563 271 1427 191 2276 -41 438 -125 847 -189 920 -49 56 -298 74 -1014 74
l-537 0 -314 -778 c-419 -1035 -463 -1143 -467 -1139 -2 1 -58 354 -125 782
-66 429 -123 782 -125 784 -5 5 -317 -159 -434 -229 -154 -92 -321 -202 -427
-281 -51 -38 -93 -66 -93 -61 0 4 30 77 66 162 205 485 257 758 257 1355 0
491 -51 990 -159 1570 -114 613 -293 1230 -395 1359 -17 21 -29 26 -67 26 -89
0 -313 -80 -657 -234 -203 -92 -930 -453 -942 -468 -5 -7 -89 -461 -187 -1008
-97 -547 -180 -1003 -184 -1013 -5 -11 -97 220 -276 695 -149 392 -276 728
-283 746 l-14 34 -47 -38 c-364 -292 -719 -649 -953 -959 -123 -163 -169 -238
-296 -480 -133 -253 -456 -899 -602 -1205 -51 -107 -90 -184 -87 -170 24 101
184 909 225 1135 195 1083 259 1687 217 2035 -58 475 -239 1050 -540 1713
-263 580 -623 1208 -856 1494 -98 122 -119 137 -172 130 -118 -16 -522 -345
-1150 -936 -172 -162 -198 -190 -198 -216 0 -16 49 -480 110 -1029 60 -550
108 -1001 106 -1003 -2 -2 -218 280 -481 627 -263 346 -481 630 -484 630 -9 0
-223 -322 -301 -455 -99 -168 -247 -464 -323 -646 -125 -301 -149 -392 -262
-989 -64 -343 -110 -606 -165 -954 -27 -169 -50 -309 -52 -311 -2 -2 -4 265
-4 593 -2 793 -28 1420 -69 1680 -91 572 -448 1340 -1017 2189 -317 474 -676
931 -927 1180 -134 134 -178 163 -247 163 -49 0 -58 -4 -126 -58 -226 -180
-676 -739 -1063 -1322 -487 -734 -807 -1386 -945 -1925 -81 -318 -107 -715
-117 -1810 l-7 -690 -18 115 c-128 822 -282 1638 -344 1833 -85 263 -245 617
-408 902 -97 169 -316 500 -331 500 -5 0 -223 -282 -485 -627 -261 -345 -476
-623 -478 -618 -2 5 47 467 108 1026 l112 1017 -44 44 c-24 25 -133 129 -243
232 -596 558 -977 861 -1082 861 -74 0 -240 -211 -485 -620 -676 -1125 -1124
-2400 -1083 -3085 30 -519 194 -1547 406 -2558 28 -132 49 -241 47 -243 -2 -2
-42 76 -88 174 -113 240 -504 1024 -625 1252 -54 102 -127 228 -163 280 -243
354 -601 734 -986 1045 -103 83 -121 94 -127 78 -116 -312 -553 -1460 -558
-1465 -3 -4 -87 444 -185 995 -99 551 -182 1010 -184 1020 -3 12 -117 75 -354
193 -851 426 -1243 577 -1313 508 -49 -50 -148 -311 -230 -609 -154 -563 -261
-1183 -316 -1830 -17 -196 -18 -794 -1 -945 40 -365 88 -545 251 -929 34 -79
60 -145 58 -147 -1 -1 -29 18 -62 43 -95 72 -390 265 -505 330 -164 94 -380
206 -386 200 -3 -3 -61 -357 -127 -787 -75 -478 -125 -776 -131 -768 -4 7
-180 439 -391 958 l-383 945 -628 0 c-529 -1 -648 -4 -747 -17 -64 -10 -129
-23 -145 -30 -88 -42 -174 -426 -228 -1023 -22 -242 -26 -927 -6 -1145 59
-655 190 -1132 404 -1474 45 -70 47 -78 24 -63 -164 108 -486 258 -782 365
-231 84 -541 168 -832 227 l-34 7 6 -44 c17 -118 166 -1515 164 -1525 -2 -7
-282 357 -623 808 l-620 820 -35 -5 c-19 -3 -51 -8 -71 -11 l-35 -7 -1184
2223 c-651 1223 -1183 2229 -1183 2234 0 6 184 611 409 1345 271 887 408 1350
409 1380 0 25 -6 60 -14 77 -9 22 -1168 1115 -3470 3274 -1901 1782 -3467
3247 -3481 3254 -36 18 -89 24 -129 15z m51781 -1077 c-43 -83 -3096 -5819
-3099 -5823 -3 -3 -2567 380 -2661 399 -33 6 -6 31 2865 2724 1594 1494 2899
2717 2901 2717 1 0 -1 -8 -6 -17z m-48138 -2718 l2880 -2699 -35 -7 c-157 -32
-2652 -400 -2659 -393 -8 8 -3002 5630 -3072 5769 -23 45 -26 56 -12 45 10 -8
1314 -1230 2898 -2715z m48471 2563 c-2 -7 -288 -1772 -636 -3923 -348 -2150
-635 -3913 -638 -3916 -5 -5 -1668 1797 -1804 1955 l-39 44 1557 2926 c857
1609 1559 2926 1561 2926 2 0 2 -6 -1 -12z m-50155 -2918 c853 -1603 1549
-2919 1548 -2925 -2 -7 -415 -460 -918 -1008 -865 -942 -915 -995 -923 -969
-6 24 -1267 7802 -1267 7819 0 3 2 4 4 2 3 -2 703 -1316 1556 -2919z m19175
-3240 c393 -2300 1051 -5999 1421 -7990 57 -311 106 -571 107 -578 1 -9 -42
-31 -118 -61 -166 -65 -337 -155 -496 -259 -125 -83 -329 -237 -344 -261 -18
-30 -29 -10 -192 354 -159 354 -230 545 -324 868 -49 169 -89 308 -89 310 0 2
190 -21 423 -49 232 -29 423 -51 424 -50 9 9 -711 381 -876 453 l-95 42 -121
358 c-67 197 -166 477 -219 623 -90 242 -280 871 -267 877 4 2 267 -24 586
-56 319 -33 581 -58 583 -57 8 8 -1055 445 -1170 481 l-56 18 -16 91 c-9 50
-19 105 -22 121 l-5 30 273 -3 c150 -1 301 -3 336 -5 46 -1 59 1 48 9 -8 5
-155 86 -326 179 -203 109 -315 175 -321 189 -5 12 -43 165 -85 341 -310 1320
-509 2284 -559 2710 -18 156 -18 155 -4 155 7 0 311 -131 677 -290 365 -160
666 -289 669 -287 2 2 -198 263 -443 578 -246 316 -477 612 -513 659 l-66 85
64 -50 c982 -772 1046 -821 1049 -803 3 19 -32 1459 -43 1738 -3 85 -1 128 4
115 5 -11 53 -274 106 -585z m10272 -455 c-13 -456 -23 -831 -22 -832 1 -2
248 191 550 427 301 237 550 430 552 430 3 0 -17 -28 -45 -62 -293 -373 -970
-1248 -964 -1248 4 0 307 131 672 290 365 160 668 290 675 290 7 0 10 -14 8
-37 -21 -247 -82 -600 -199 -1168 -116 -559 -446 -2002 -462 -2017 -4 -3 -146
-82 -317 -174 -170 -92 -314 -171 -320 -176 -6 -6 118 -8 320 -7 l330 3 -3
-29 c-2 -15 -11 -69 -21 -119 l-16 -90 -70 -25 c-144 -50 -1168 -471 -1161
-478 1 -1 264 25 585 58 321 32 586 57 588 55 13 -13 -178 -637 -280 -916 -64
-173 -162 -455 -219 -627 l-103 -311 -95 -42 c-169 -75 -887 -447 -878 -456 2
-1 181 20 398 47 217 27 407 49 422 49 l26 0 -29 -97 c-17 -54 -56 -191 -89
-304 -58 -205 -120 -371 -243 -654 -68 -156 -214 -476 -221 -483 -3 -2 -51 34
-108 80 -254 206 -519 361 -783 459 -49 18 -91 34 -92 34 -2 1 31 181 72 401
372 1995 1083 5992 1507 8471 l53 312 2 -112 c2 -62 -8 -485 -20 -942z
m-26727 -1049 c468 -879 849 -1600 847 -1602 -2 -2 -78 18 -168 46 -1655 504
-3448 1052 -3462 1058 -15 6 33 63 289 342 169 184 350 381 403 436 53 56 350
378 661 717 311 339 568 613 572 609 4 -4 390 -727 858 -1606z m44656 919
c313 -341 579 -629 590 -640 61 -57 705 -767 700 -772 -4 -5 -1664 -513 -3440
-1053 -109 -34 -200 -59 -202 -58 -1 2 275 525 614 1163 340 638 725 1362 856
1608 l239 449 37 -39 c21 -21 293 -317 606 -658z m-26271 95 c75 -148 179
-438 243 -680 97 -360 175 -846 197 -1215 3 -55 8 -118 11 -140 l5 -40 -410
-335 c-226 -184 -409 -335 -408 -337 2 -1 196 56 431 128 236 71 431 127 434
124 8 -7 35 -222 87 -690 153 -1369 235 -2736 235 -3900 0 -392 -14 -958 -25
-974 -2 -4 -37 1 -77 11 -165 42 -257 52 -478 52 -159 0 -241 -5 -314 -17 -54
-10 -100 -16 -102 -14 -2 2 -40 284 -84 628 -397 3074 -690 5221 -811 5933
l-20 120 383 384 c211 212 376 381 368 376 -8 -4 -140 -91 -293 -192 -154
-101 -280 -182 -281 -180 -3 3 876 1008 881 1008 2 0 14 -22 28 -50z m6775
-426 c228 -261 428 -490 444 -510 21 -26 -49 16 -269 161 -163 108 -299 194
-302 192 -2 -3 169 -175 381 -383 l385 -379 -9 -45 c-92 -483 -548 -3821 -876
-6420 -15 -118 -28 -217 -30 -218 -1 -2 -44 4 -96 13 -226 40 -546 28 -782
-29 l-94 -23 -6 31 c-13 66 -19 1443 -7 1791 39 1188 134 2375 292 3658 12 92
14 98 33 93 12 -3 207 -62 435 -131 228 -69 415 -124 416 -123 2 2 -182 153
-407 337 l-410 335 7 100 c40 625 152 1208 322 1675 51 141 142 351 152 350 3
0 193 -214 421 -475z m-4843 -106 c280 -198 501 -359 493 -355 -8 3 -118 53
-245 112 -265 124 -315 146 -315 140 0 -2 198 -151 440 -331 438 -325 440
-327 440 -363 1 -249 29 -1252 60 -2141 36 -1015 134 -3486 145 -3637 l6 -83
-45 0 c-39 0 -45 -3 -48 -22 -2 -18 -12 -25 -43 -30 -136 -25 -358 -71 -403
-84 l-53 -15 -137 114 c-175 145 -317 258 -414 331 -43 32 -79 65 -82 74 -29
96 -240 2051 -223 2068 2 3 228 -63 502 -146 273 -83 499 -150 501 -148 4 5
-607 427 -847 584 l-196 129 -7 115 c-4 63 -9 127 -12 143 -5 22 -2 27 14 27
11 0 147 -27 303 -59 156 -33 285 -58 286 -57 2 1 -129 115 -291 252 l-294
249 -6 60 c-9 83 -46 799 -42 803 2 1 194 -22 427 -52 233 -30 425 -53 427
-52 1 2 -195 121 -437 266 l-438 263 -7 136 c-22 480 -30 777 -30 1241 l-1
525 29 153 c16 83 31 152 33 152 1 0 231 -163 510 -362z m3002 227 c11 -61 25
-142 30 -182 20 -133 11 -783 -22 -1603 l-12 -285 -445 -268 c-304 -183 -434
-266 -410 -262 123 19 825 104 829 99 5 -4 -23 -596 -36 -777 l-6 -78 -294
-251 c-162 -137 -293 -251 -291 -253 2 -2 129 23 283 56 154 32 288 59 299 59
17 0 18 -7 11 -121 -4 -67 -10 -132 -14 -144 -4 -16 -81 -73 -251 -186 -302
-202 -791 -541 -787 -546 2 -2 228 65 501 148 274 83 499 149 501 147 4 -4
-31 -397 -65 -733 -57 -556 -154 -1344 -167 -1355 -4 -4 -46 -35 -93 -70 -103
-77 -311 -245 -437 -352 l-91 -78 -120 29 c-66 16 -179 39 -251 52 -124 21
-131 24 -131 46 0 21 -5 23 -45 23 -38 0 -45 3 -45 20 0 11 11 284 25 607 102
2400 175 4503 175 5035 l0 227 43 34 c23 18 223 168 444 332 221 165 401 300
399 302 -1 2 -115 -49 -252 -113 -275 -128 -304 -140 -289 -125 6 6 228 165
495 355 316 225 487 340 492 333 3 -7 15 -62 27 -122z m8236 -1752 c-157 -484
-285 -885 -285 -890 0 -8 415 154 1263 492 20 8 37 13 37 12 0 -2 -304 -221
-674 -488 -371 -266 -674 -485 -672 -486 1 -1 329 39 729 89 399 51 729 89
733 86 26 -27 -298 -683 -712 -1440 -161 -293 -184 -330 -316 -500 -182 -234
-495 -653 -639 -855 -62 -87 -114 -160 -116 -162 -2 -3 -112 -28 -245 -56
-133 -28 -238 -54 -233 -57 6 -3 80 -25 165 -48 85 -24 157 -44 158 -46 2 -1
-47 -77 -109 -168 -98 -145 -117 -166 -143 -171 -17 -2 -202 -23 -411 -45
-209 -23 -398 -44 -420 -47 -32 -5 31 -20 315 -73 195 -37 360 -68 367 -71 8
-2 -26 -63 -89 -159 -294 -450 -661 -1050 -883 -1441 l-89 -156 -120 -22
c-159 -29 -557 -113 -553 -117 1 -2 113 -21 247 -44 135 -22 257 -43 271 -46
l26 -5 -80 -147 c-93 -172 -439 -855 -519 -1025 l-55 -118 -23 58 c-71 180
-208 416 -327 563 -70 87 -247 260 -316 310 -26 18 -47 38 -47 43 0 5 209 422
464 926 815 1609 2226 4441 3281 6583 165 334 301 606 302 604 2 -2 -125 -399
-282 -883z m-19551 -618 c637 -1291 2499 -5020 2941 -5889 201 -396 365 -722
365 -725 0 -3 -17 -18 -38 -32 -145 -104 -318 -289 -444 -479 -59 -88 -159
-280 -220 -419 l-14 -34 -221 444 c-122 244 -269 532 -326 639 -69 127 -101
197 -94 201 7 3 131 26 276 49 146 24 261 45 255 47 -20 6 -533 112 -602 124
l-72 12 -86 151 c-248 434 -518 878 -801 1315 -101 156 -182 285 -180 288 3 2
165 34 360 70 196 37 355 69 353 70 -2 2 -201 26 -442 53 -242 27 -440 50
-441 50 -4 1 -223 323 -223 329 0 4 72 28 160 52 88 24 160 46 160 50 0 3
-106 28 -236 55 l-235 49 -111 155 c-148 206 -481 651 -655 875 -130 167 -152
204 -320 510 -387 709 -667 1269 -698 1398 -6 22 -4 27 11 27 11 0 341 -41
733 -90 393 -49 716 -88 717 -87 1 1 -303 220 -676 487 -373 267 -677 486
-676 487 1 2 294 -114 652 -256 357 -142 650 -257 652 -256 2 2 -125 399 -282
884 -157 484 -286 884 -285 888 0 10 174 -339 743 -1492z m1699 816 c292 -391
551 -882 768 -1455 67 -178 67 -180 50 -205 -10 -14 -112 -163 -226 -331 -114
-168 -242 -354 -283 -414 -43 -62 -66 -104 -55 -98 11 6 181 117 378 247 198
129 363 234 368 232 11 -3 142 -302 320 -729 623 -1496 1125 -2937 1470 -4225
l25 -91 -21 -6 c-12 -3 -54 -6 -94 -6 -226 0 -575 -81 -799 -185 -43 -19 -78
-34 -79 -33 -1 2 -113 257 -250 568 -1006 2289 -1941 4369 -2350 5227 l-67
142 242 443 c133 244 251 458 262 476 11 17 17 32 15 32 -3 0 -100 -114 -217
-252 -204 -243 -258 -305 -248 -283 3 6 130 282 283 614 l279 604 62 -65 c34
-36 109 -129 167 -207z m16203 -341 c155 -336 280 -610 279 -610 -2 0 -101
116 -221 258 -119 141 -224 264 -232 272 -21 22 1 -19 267 -504 l241 -438
-100 -208 c-273 -569 -743 -1608 -1502 -3315 -339 -761 -1020 -2304 -1052
-2380 l-15 -34 -98 43 c-229 101 -559 176 -783 176 -84 0 -112 8 -106 29 2 9
36 134 75 277 208 769 548 1798 917 2771 217 575 533 1349 751 1845 l64 146
377 -248 c207 -136 378 -246 380 -245 2 2 -127 194 -286 426 -158 233 -292
430 -296 436 -4 7 23 92 59 189 206 549 485 1078 771 1461 77 102 213 263 223
263 3 0 133 -275 287 -610z m-19947 -1952 c290 -217 670 -613 957 -998 152
-203 404 -583 404 -608 0 -5 -89 -226 -199 -491 -109 -264 -196 -481 -193
-481 4 0 148 144 322 321 l315 321 116 -163 c976 -1376 1910 -2883 2530 -4085
61 -118 110 -216 108 -218 -2 -2 -49 -18 -104 -36 -243 -79 -514 -197 -719
-314 -114 -65 -119 -67 -136 -49 -9 10 -219 299 -465 643 -1498 2088 -2838
3923 -3213 4400 l-60 76 154 504 c84 278 152 508 151 513 -1 4 -76 -130 -166
-298 -90 -168 -166 -303 -168 -302 -3 3 278 1241 293 1290 3 9 8 17 11 17 4 0
31 -19 62 -42z m23251 36 c0 -3 61 -271 136 -597 74 -326 142 -619 149 -652
10 -43 11 -56 2 -44 -7 9 -81 145 -166 303 -85 157 -156 284 -158 282 -2 -2
64 -227 146 -500 83 -273 151 -501 151 -506 0 -5 -48 -72 -107 -147 -405 -521
-1768 -2389 -3208 -4398 -224 -313 -414 -576 -421 -584 -10 -11 -25 -6 -91 31
-212 123 -543 269 -775 344 -49 15 -88 32 -88 37 0 12 148 297 318 612 520
962 1254 2147 2011 3245 162 236 397 568 412 585 6 6 128 -109 329 -310 176
-176 320 -317 320 -313 0 4 -86 216 -191 470 -105 255 -195 472 -199 483 -13
34 260 448 484 734 265 339 603 685 856 875 70 53 90 64 90 50z m-25139 -589
c1002 -1279 2359 -2998 3418 -4330 485 -610 1602 -2006 1643 -2053 l28 -33
-74 -59 c-175 -139 -366 -346 -483 -521 -25 -38 -47 -69 -49 -69 -1 0 -59 69
-127 153 -69 83 -182 219 -252 300 -70 82 -125 150 -123 152 2 2 77 32 168 67
l165 63 -230 5 -230 5 -95 105 c-362 403 -815 874 -1160 1207 -129 125 -236
230 -237 233 -1 3 118 55 266 115 148 61 268 111 267 112 -2 2 -162 -12 -357
-31 l-354 -34 -45 42 c-25 23 -103 96 -175 162 -71 65 -129 121 -128 123 1 3
43 26 95 52 l93 48 -155 1 -155 0 -80 71 c-398 354 -1154 981 -1505 1248 -63
48 -474 537 -727 866 -121 157 -249 342 -242 350 3 2 332 31 733 64 401 33
730 62 732 64 2 1 -339 153 -757 337 -419 184 -755 336 -747 337 7 1 317 -51
688 -115 371 -65 676 -115 678 -112 1 4 -205 368 -459 811 -530 924 -475 827
-462 814 6 -5 201 -253 434 -550z m27386 538 c-245 -427 -907 -1584 -915
-1600 -10 -18 -9 -20 6 -17 52 12 1365 234 1367 232 2 -2 -338 -153 -756 -337
-417 -184 -757 -336 -755 -338 2 -2 331 -31 732 -64 401 -33 730 -62 732 -64
12 -11 -197 -295 -427 -580 -322 -400 -498 -601 -589 -672 -433 -336 -945
-759 -1384 -1145 l-157 -138 -153 0 -153 -1 80 -44 c44 -24 86 -47 93 -52 10
-6 -37 -54 -163 -171 -172 -159 -176 -162 -213 -157 -51 8 -666 64 -669 62 -1
-1 117 -51 263 -112 145 -60 264 -111 264 -113 0 -2 -182 -184 -404 -405 -407
-405 -622 -630 -924 -964 l-164 -183 -232 0 -231 -1 171 -67 172 -67 -22 -26
c-11 -14 -111 -134 -221 -265 -110 -132 -214 -257 -231 -278 l-31 -39 -62 91
c-122 178 -290 356 -476 506 -33 27 -60 51 -60 55 0 3 376 476 836 1051 1285
1607 2965 3730 4389 5548 246 314 307 389 287 355z m-15707 -3353 c17 -107 33
-202 36 -211 3 -11 -29 -38 -112 -93 l-117 -78 6 103 c23 359 45 895 48 1124
1 67 9 21 54 -285 29 -201 67 -453 85 -560z m-13472 759 c375 -161 843 -461
1259 -809 100 -83 147 -133 253 -265 l131 -164 -61 -469 c-33 -258 -60 -475
-60 -483 0 -8 99 159 219 370 121 211 223 387 228 391 11 12 508 -401 1038
-865 1157 -1010 2210 -2046 2966 -2917 l129 -148 -29 -78 c-39 -104 -86 -300
-108 -442 -12 -83 -17 -178 -18 -342 0 -226 0 -227 -20 -209 -25 23 -1200 982
-2010 1642 -1899 1546 -3155 2554 -3717 2983 l-168 127 0 92 c0 51 7 290 15
532 8 242 14 445 14 450 0 6 -38 -147 -84 -340 -45 -192 -85 -343 -88 -335 -3
8 -15 296 -26 640 -12 344 -23 642 -25 663 -4 37 -3 38 20 33 14 -4 78 -29
142 -57z m30702 19 c0 -80 -49 -1311 -52 -1314 -2 -1 -39 151 -83 339 -44 188
-81 332 -83 320 -2 -13 4 -242 12 -510 9 -269 16 -498 16 -509 0 -15 -23 -39
-77 -80 -589 -439 -2555 -2023 -5230 -4211 -332 -271 -606 -493 -609 -493 -4
0 -4 51 -1 114 16 277 -30 601 -125 879 l-30 88 49 57 c100 118 446 504 608
677 410 439 1266 1277 1815 1776 523 475 1316 1161 1616 1396 l42 33 222 -390
c123 -215 224 -389 226 -388 1 2 -24 210 -57 463 -32 253 -59 470 -59 482 0
12 52 86 128 180 103 128 151 178 257 267 343 286 732 549 1065 716 118 60
318 148 338 149 8 1 12 -14 12 -41z m-16587 -578 c104 -34 187 -64 185 -65 -2
-2 -57 -24 -123 -48 -66 -25 -146 -56 -177 -70 l-58 -26 -5 22 c-8 39 -35 224
-35 242 0 9 6 15 13 13 6 -3 97 -33 200 -68z m2527 65 c0 -18 -42 -260 -45
-263 -3 -3 -62 18 -132 46 -71 27 -152 58 -181 67 -29 9 -51 19 -49 21 4 4
385 131 400 133 4 1 7 -1 7 -4z m15570 -740 c-549 -549 -670 -675 -650 -675
43 -1 1380 -127 1384 -131 3 -2 -364 -60 -815 -129 -450 -68 -819 -127 -819
-130 0 -4 311 -118 691 -255 l691 -249 -38 -34 c-315 -272 -872 -672 -1754
-1258 l-315 -210 -185 -48 c-102 -26 -330 -87 -507 -137 -177 -49 -328 -89
-337 -89 -8 0 -74 16 -145 35 -71 19 -133 35 -139 35 -6 0 19 -28 54 -62 l65
-62 -63 -18 c-35 -11 -163 -50 -286 -88 l-223 -69 -241 89 c-133 50 -243 88
-245 86 -2 -2 61 -54 141 -116 80 -61 146 -114 146 -118 0 -4 -87 -36 -192
-71 -1019 -337 -2062 -762 -3018 -1233 -201 -98 -360 -175 -355 -170 6 5 233
170 505 367 1575 1142 4904 3604 7040 5207 151 113 277 207 280 207 3 1 -299
-303 -670 -674z m-33670 15 c2661 -1986 4859 -3610 6345 -4688 610 -443 613
-445 600 -441 -5 2 -91 45 -190 95 -926 471 -2180 986 -3240 1334 -71 23 -133
45 -137 49 -4 3 60 58 142 120 82 63 148 116 146 118 -2 2 -113 -37 -246 -86
l-242 -90 -281 86 c-155 48 -284 88 -286 90 -3 2 24 31 60 64 40 38 56 59 44
56 -11 -2 -78 -19 -150 -37 l-130 -34 -310 87 c-170 48 -403 111 -516 141
l-206 54 -274 182 c-589 393 -1148 783 -1449 1011 -155 117 -335 264 -358 292
-13 15 -33 8 1010 383 197 71 358 131 358 134 0 3 -369 61 -821 130 -559 85
-812 127 -792 132 15 4 330 35 698 69 369 33 672 63 675 65 2 3 -295 304 -660
671 -500 500 -645 651 -585 606 44 -33 402 -300 795 -593z m16830 -630 c759
-68 1372 -398 1752 -943 12 -17 18 -17 108 -2 216 37 518 30 757 -16 502 -97
1024 -381 1447 -788 l121 -116 85 28 c210 69 462 93 655 64 311 -49 584 -186
855 -432 223 -201 454 -509 603 -802 l52 -103 100 -31 c687 -213 1212 -639
1492 -1210 172 -350 256 -710 257 -1106 l1 -182 135 -46 c882 -300 1396 -1041
1427 -2060 3 -113 1 -234 -6 -299 l-11 -108 49 -44 c60 -54 174 -189 228 -269
123 -184 179 -384 153 -556 -18 -124 -73 -271 -127 -337 l-18 -23 -48 20 c-27
12 -73 28 -103 37 -29 8 -54 16 -54 17 0 1 7 37 15 80 47 247 -21 498 -205
760 -73 104 -276 312 -392 401 -74 57 -75 60 -67 90 42 144 54 436 24 611 -49
289 -193 574 -409 810 -210 230 -560 461 -936 616 -96 40 -116 51 -118 71 -7
54 -64 273 -97 376 -278 860 -856 1469 -1600 1686 -110 32 -261 65 -295 66
-23 0 -28 8 -49 77 -38 123 -151 336 -240 453 -162 214 -355 376 -586 490
-227 113 -453 175 -729 201 -157 14 -515 6 -666 -15 -58 -9 -113 -16 -122 -16
-12 0 -31 26 -59 83 -84 167 -189 307 -342 454 -376 362 -867 487 -1444 367
-97 -20 -243 -59 -296 -80 -8 -3 -25 13 -42 38 -42 63 -228 251 -320 323 -259
202 -532 329 -854 396 -183 38 -352 19 -610 -66 -359 -120 -690 -348 -912
-631 l-48 -61 -116 34 c-673 193 -1233 79 -1655 -337 -140 -138 -277 -328
-345 -479 l-19 -43 -51 6 c-427 54 -752 48 -1053 -20 -541 -121 -961 -449
-1188 -929 -24 -49 -54 -123 -67 -164 l-24 -74 -109 -22 c-298 -60 -566 -169
-799 -324 -514 -341 -912 -946 -1074 -1631 -18 -74 -35 -146 -39 -159 -6 -18
-37 -36 -162 -90 -563 -243 -959 -579 -1165 -990 -49 -98 -110 -284 -132 -401
-26 -142 -23 -411 5 -547 12 -55 22 -103 22 -106 0 -2 -35 -33 -77 -68 -303
-247 -499 -510 -573 -769 -29 -101 -38 -298 -17 -395 8 -38 12 -71 8 -73 -6
-2 -157 -56 -191 -68 -31 -10 -118 171 -145 302 -55 266 53 543 318 820 l104
109 -9 70 c-15 106 -4 519 17 655 100 661 411 1174 907 1498 149 97 390 208
563 261 l70 21 0 198 c1 283 36 504 126 776 242 737 788 1254 1609 1521 l115
38 49 99 c142 288 389 614 620 820 451 401 977 524 1498 349 l83 -28 103 104
c338 337 816 625 1244 749 256 73 465 100 718 91 91 -3 206 -13 255 -21 50 -9
93 -16 97 -16 3 0 18 20 33 46 36 62 161 209 237 279 275 255 610 440 976 541
195 53 293 70 597 103 6 0 62 -4 125 -9z m-73 -1731 c17 -74 40 -315 53 -539
46 -828 46 -2404 -1 -3235 -10 -182 -35 -468 -45 -515 -12 -52 -26 -90 -34
-90 -77 0 -136 1514 -111 2838 12 648 22 910 46 1224 15 186 37 346 50 369 14
21 30 0 42 -52z m-2427 -383 c187 -412 739 -3179 825 -4138 l7 -76 -38 -11
c-22 -6 -44 -11 -50 -11 -13 0 -73 206 -144 495 -345 1411 -747 3805 -638
3805 5 0 22 -29 38 -64z m4850 -42 c0 -482 -391 -2669 -680 -3799 -38 -148
-77 -297 -88 -330 -18 -59 -19 -60 -53 -57 -63 5 -63 3 -55 105 10 137 60 501
117 857 218 1361 604 3120 725 3308 25 38 34 15 34 -84z m-19770 -280 c407
-38 874 -140 1337 -290 95 -31 179 -61 187 -68 8 -6 80 -229 161 -496 81 -267
150 -489 154 -495 3 -5 24 189 47 433 23 244 44 446 48 449 7 7 230 -53 716
-192 1925 -552 3655 -1190 4909 -1810 l224 -111 -99 -61 c-155 -96 -298 -207
-432 -337 -94 -91 -223 -235 -237 -264 -1 -1 -400 104 -886 234 -2699 719
-4937 1298 -5652 1461 l-208 48 -207 497 c-113 273 -207 496 -208 495 -2 -1
26 -146 60 -322 76 -386 74 -375 70 -375 -4 0 -604 1210 -604 1216 0 17 403 9
620 -12z m35258 11 c2 -1 -134 -277 -302 -611 -168 -335 -305 -606 -305 -602
-1 3 28 154 64 336 36 181 65 336 65 343 0 8 -92 -205 -203 -474 -112 -268
-207 -491 -213 -496 -5 -5 -110 -32 -234 -61 -749 -172 -3978 -1010 -6410
-1664 -52 -14 -97 -22 -100 -18 -190 236 -381 410 -615 560 -60 39 -118 77
-128 84 -17 12 12 28 270 155 1168 574 2772 1171 4573 1701 480 142 977 278
984 271 2 -2 23 -202 45 -444 23 -242 43 -444 44 -448 1 -4 69 212 151 480 82
268 154 497 161 508 7 12 28 26 46 32 703 224 1162 322 1660 352 123 8 438 5
447 -4z m-13148 -877 c-84 -478 -795 -2387 -1185 -3183 -103 -212 -153 -295
-176 -295 -82 0 372 1349 831 2470 207 505 418 960 490 1059 45 61 57 45 40
-51z m-9541 45 c63 -77 258 -496 471 -1013 452 -1098 912 -2452 853 -2511 -48
-48 -399 725 -768 1686 -379 990 -661 1875 -596 1875 5 0 23 -17 40 -37z
m-14149 -803 c3213 -709 6247 -1362 8017 -1726 238 -49 433 -91 433 -94 0 -3
-25 -51 -55 -105 -144 -261 -245 -560 -299 -890 l-22 -130 -405 1 c-463 1
-814 22 -807 48 2 7 97 180 212 384 114 205 207 374 205 376 -12 10 -633 -520
-783 -669 l-118 -116 -892 101 c-1026 116 -976 109 -976 121 0 8 417 796 518
979 l35 64 -39 -31 c-69 -56 -784 -783 -865 -880 l-35 -42 -114 25 c-63 13
-115 26 -117 28 -2 2 55 140 127 306 71 167 128 305 126 307 -2 2 -133 -102
-292 -232 -159 -129 -295 -235 -303 -235 -78 0 -1646 264 -2226 375 -444 85
-961 207 -988 234 -4 4 231 238 523 521 291 282 529 515 527 516 -1 2 -362
-98 -802 -221 -440 -123 -800 -223 -802 -222 -1 1 270 157 603 347 333 189
607 347 609 350 2 3 -389 153 -869 334 -479 181 -875 333 -880 337 -4 4 9 4
30 -1 22 -5 347 -77 724 -160z m38540 156 c-14 -7 -411 -158 -882 -337 -472
-178 -858 -326 -858 -329 0 -3 275 -160 609 -350 335 -190 608 -346 607 -348
-2 -1 -362 99 -802 222 -439 123 -800 223 -802 221 -2 -2 905 -886 1037 -1011
l24 -22 -94 -30 c-334 -107 -1268 -287 -2574 -496 -258 -41 -493 -78 -521 -82
l-51 -6 -289 235 c-158 130 -290 235 -292 233 -2 -3 53 -136 122 -298 69 -161
126 -299 126 -305 0 -7 -10 -15 -22 -18 -13 -3 -63 -14 -112 -24 l-90 -20 -60
67 c-136 152 -877 886 -861 852 10 -19 134 -255 277 -523 143 -269 258 -490
256 -492 -2 -3 -424 -52 -937 -110 l-933 -106 -131 128 c-159 155 -614 545
-767 657 -8 6 -3 -9 11 -34 131 -229 410 -732 407 -735 -6 -6 -231 -25 -418
-35 -102 -5 -323 -10 -491 -10 l-307 0 -12 83 c-29 202 -91 441 -164 631 -44
112 -137 307 -182 378 -18 28 -21 40 -12 43 7 2 137 29 288 60 1275 262 3582
754 5855 1250 874 190 2913 639 2990 658 76 19 86 19 55 3z m-26392 -922 c341
-364 1238 -1692 1636 -2422 64 -117 136 -267 136 -282 0 -4 -12 -12 -27 -19
-24 -11 -29 -9 -65 26 -93 90 -346 418 -595 774 -679 967 -1347 2107 -1184
2020 10 -6 55 -49 99 -97z m13606 17 c-166 -442 -1329 -2217 -1766 -2695 -51
-56 -54 -58 -80 -45 -16 7 -28 18 -28 25 0 24 159 329 273 524 508 868 1367
2096 1575 2253 37 28 37 28 40 6 2 -12 -4 -42 -14 -68z m-6279 -1945 c1169
-100 2259 -394 3443 -927 1485 -669 3091 -1776 4330 -2985 l163 -159 -55 -195
c-30 -107 -57 -208 -61 -223 -6 -29 -7 -28 -113 75 -141 135 -401 372 -582
529 -1368 1185 -2746 2042 -3975 2472 -189 66 -394 129 -407 125 -6 -2 63 -44
153 -93 342 -184 868 -492 1277 -748 1015 -636 1851 -1249 2522 -1850 362
-325 813 -809 982 -1054 l31 -45 -18 -147 c-9 -80 -20 -172 -23 -205 l-7 -58
-192 205 c-496 529 -1077 1041 -1663 1466 -1694 1231 -3710 1972 -5740 2111
-190 13 -1081 13 -1285 0 -917 -59 -1913 -265 -2830 -586 -1282 -449 -2474
-1127 -3526 -2006 -350 -291 -820 -737 -1106 -1049 l-128 -140 -7 38 c-4 21
-15 112 -26 203 l-19 165 23 35 c138 208 543 651 889 973 929 863 2385 1864
3988 2741 38 21 66 40 63 43 -8 8 -293 -82 -501 -158 -556 -204 -1219 -533
-1815 -904 -869 -540 -1809 -1270 -2604 -2023 -76 -73 -142 -132 -145 -132 -4
0 -17 43 -30 95 -13 52 -38 145 -57 207 -33 111 -33 113 -14 127 22 15 28 37
8 25 -29 -16 303 312 497 491 1677 1544 3614 2686 5460 3220 672 194 1293 305
1985 355 186 13 902 4 1115 -14z m-9189 -28 c66 -44 304 -277 483 -473 327
-357 683 -794 927 -1135 94 -131 214 -325 214 -344 0 -7 -13 -19 -29 -29 l-28
-17 -74 64 c-368 315 -1236 1352 -1492 1781 -106 179 -107 222 -1 153z m17304
13 c0 -54 -145 -282 -370 -580 -389 -517 -937 -1142 -1197 -1363 l-82 -70 -31
22 -31 22 32 56 c251 452 1234 1621 1588 1889 61 47 91 54 91 24z m-25709
-321 c256 -20 708 -80 736 -99 6 -3 102 -194 214 -424 112 -230 205 -414 207
-408 2 6 -6 163 -17 348 -12 186 -22 363 -24 393 l-2 55 40 -3 c74 -5 488 -53
765 -88 1233 -155 2538 -390 3520 -634 246 -61 572 -148 578 -154 2 -2 -15
-41 -38 -86 -120 -240 -190 -469 -215 -707 -4 -35 -9 -63 -11 -63 -2 0 -284
29 -626 65 -2399 249 -4318 434 -5041 487 l-307 23 -251 410 c-139 225 -256
415 -261 420 -5 6 -3 -8 6 -30 46 -118 205 -560 202 -562 -4 -4 -685 952 -692
971 -4 10 12 18 63 29 87 20 261 45 383 56 140 12 615 13 771 1z m34784 0
c228 -19 479 -62 473 -81 -6 -18 -693 -977 -695 -970 -2 3 44 134 102 291 57
156 103 285 101 287 -1 2 -112 -176 -246 -395 -134 -218 -249 -404 -257 -413
-10 -12 -42 -18 -131 -23 -519 -30 -2633 -233 -5122 -491 -399 -41 -728 -75
-732 -75 -5 0 -8 24 -8 53 0 101 -46 310 -101 459 -16 46 -58 140 -91 211 -34
70 -59 129 -56 132 16 16 716 193 1103 279 1036 230 2283 434 3491 570 165 19
301 32 303 30 6 -5 -38 -758 -45 -794 -3 -14 -3 -22 0 -19 4 3 99 195 211 425
113 230 211 422 217 426 30 17 494 80 713 97 160 12 631 12 770 1z m-30325
-205 c495 -34 1230 -65 1551 -65 l156 0 6 -172 c4 -95 10 -199 13 -230 l7 -57
-79 25 c-570 179 -1200 349 -1724 464 -187 41 -264 64 -185 55 22 -3 137 -12
255 -20z m25395 15 c-11 -5 -114 -30 -230 -55 -456 -101 -1143 -284 -1602
-428 -95 -30 -174 -53 -176 -51 -2 2 0 38 4 81 4 43 11 144 14 226 l7 147 152
0 c349 0 1121 34 1586 69 290 22 269 21 245 11z m-32235 -1445 c52 -3 469 -28
925 -55 2751 -164 5735 -328 6940 -381 149 -7 276 -16 283 -22 6 -5 12 -19 12
-32 0 -36 37 -169 69 -250 38 -95 95 -191 161 -273 32 -40 46 -64 38 -66 -7
-3 -58 -10 -113 -16 -169 -19 -637 -88 -884 -130 -129 -22 -235 -39 -237 -37
-1 1 27 80 62 176 36 96 63 175 61 177 -2 3 -290 -319 -334 -374 -16 -20 -54
-30 -293 -78 -403 -80 -850 -182 -1323 -301 -231 -57 -421 -103 -423 -100 -3
2 70 219 161 482 91 263 164 479 163 481 -8 7 -636 -870 -673 -940 l-20 -38
-105 7 c-58 4 -107 9 -110 12 -3 2 28 133 68 290 40 157 71 287 69 289 -2 2
-106 -112 -232 -253 l-229 -256 -766 7 c-1185 10 -1801 33 -2113 77 -57 9 -77
15 -73 25 3 7 181 247 396 534 215 287 390 523 388 525 -2 2 -307 -135 -678
-305 -370 -171 -675 -309 -676 -307 -2 1 217 178 486 392 268 215 485 393 482
396 -4 3 -371 81 -817 173 -760 157 -918 192 -805 181 25 -2 88 -7 140 -10z
m38960 5 c-14 -5 -387 -84 -830 -176 -443 -91 -808 -170 -813 -173 -4 -4 214
-184 484 -399 270 -216 488 -392 486 -392 -3 0 -310 140 -682 310 -372 171
-678 310 -680 310 -3 0 176 -241 396 -535 221 -295 400 -537 397 -540 -7 -8
-240 -34 -393 -44 -400 -28 -1422 -51 -2195 -50 l-375 0 -225 253 c-124 139
-226 250 -228 245 -2 -4 29 -134 68 -289 40 -155 71 -283 69 -285 -2 -2 -52
-7 -110 -10 l-106 -8 -28 49 c-37 64 -197 292 -410 584 -219 301 -248 340
-252 336 -2 -2 71 -218 162 -480 91 -263 165 -478 165 -480 0 -1 -109 26 -242
61 -475 123 -996 243 -1493 343 -274 55 -291 60 -315 87 -184 211 -323 364
-326 360 -3 -2 23 -79 57 -171 34 -92 60 -169 57 -171 -2 -2 -78 9 -169 24
-211 37 -656 104 -874 131 -93 12 -176 23 -182 25 -8 3 12 37 50 87 105 139
172 290 206 458 l17 85 465 22 c1652 78 5724 305 7469 417 436 28 412 27 380
16z m-28826 -105 c258 -133 724 -513 978 -799 48 -55 88 -105 88 -112 0 -6
-20 -28 -45 -48 l-44 -37 -33 17 c-94 48 -344 233 -527 389 -304 260 -569 555
-547 610 9 25 56 17 130 -20z m18656 12 c0 -121 -541 -639 -966 -925 -141 -94
-136 -94 -189 -42 l-44 43 22 31 c12 17 85 96 162 175 408 419 1015 848 1015
718z m-9045 -327 c1425 -83 2870 -473 4395 -1185 333 -156 790 -393 1093 -566
l129 -74 2 -1420 c1 -781 0 -1427 -2 -1436 -2 -9 -36 -34 -76 -57 -127 -72
-470 -298 -518 -342 -66 -59 -91 -115 -92 -204 0 -60 12 -110 77 -326 339
-1131 712 -2775 932 -4105 41 -253 111 -676 155 -940 44 -264 87 -538 95 -610
9 -71 22 -159 31 -194 9 -41 12 -85 8 -125 -7 -70 8 -260 37 -454 69 -472 161
-1726 189 -2557 5 -176 15 -389 21 -473 6 -85 9 -155 7 -156 -3 -3 -5284 3017
-5295 3028 -3 3 -23 552 -43 1219 l-38 1213 -105 172 c-58 94 -151 249 -205
344 -54 95 -147 247 -207 338 -60 91 -261 413 -447 715 -187 303 -354 565
-371 583 -83 87 -212 101 -310 34 -52 -37 -44 -25 -307 -457 -118 -192 -379
-618 -580 -945 -202 -327 -377 -615 -389 -638 -12 -24 -39 -72 -60 -105 l-38
-62 -37 -1215 c-21 -668 -38 -1216 -39 -1216 -19 -14 -5290 -3164 -5294 -3164
-3 0 -3 42 1 93 8 118 14 257 26 642 31 928 114 2033 216 2855 16 128 23 226
19 261 -4 38 1 81 14 140 35 145 69 362 116 729 119 930 352 2161 656 3465
136 581 217 893 395 1508 80 279 94 338 94 400 0 143 -68 225 -286 341 -214
115 -267 148 -325 206 -90 90 -89 75 -70 730 7 261 11 772 9 1279 l-3 843 165
95 c1038 596 2182 1089 3205 1382 1085 310 2199 460 3050 411z m-10028 -840
c246 -86 478 -365 661 -795 425 -1001 503 -2598 186 -3815 -136 -523 -333
-922 -568 -1155 -108 -107 -176 -153 -282 -191 -430 -157 -871 289 -1138 1148
-350 1130 -335 2687 38 3773 186 544 454 918 736 1029 104 41 259 44 367 6z
m19633 19 c502 -79 944 -982 1079 -2199 55 -488 57 -1060 5 -1550 -87 -838
-312 -1530 -629 -1936 -186 -238 -414 -351 -633 -314 -359 60 -700 537 -911
1275 -89 310 -161 709 -198 1105 -22 234 -25 968 -5 1185 46 498 113 865 223
1233 143 474 357 862 576 1045 170 141 309 186 493 156z m-20820 -103 c0 -2
-20 -40 -45 -84 -90 -163 -162 -331 -250 -586 l-62 -178 -89 -28 c-49 -16
-615 -193 -1259 -393 -1897 -592 -3069 -965 -3776 -1201 l-395 -132 -374 223
c-205 123 -374 222 -375 221 -2 -2 47 -50 109 -107 61 -58 153 -145 204 -194
l93 -89 -490 248 c-270 137 -491 252 -491 256 0 10 167 111 303 183 377 198
904 392 1414 520 l103 25 332 -249 c183 -137 334 -248 336 -246 2 1 -67 137
-153 301 -85 164 -152 301 -148 305 15 13 698 218 1163 348 1295 361 2529 645
3500 805 151 25 286 47 300 49 39 7 50 7 50 3z m22105 -56 c1224 -203 2813
-589 4390 -1066 138 -42 253 -79 257 -83 3 -3 -65 -141 -151 -306 -87 -165
-157 -301 -155 -303 1 -2 153 110 338 248 l335 252 188 -50 c491 -132 931
-295 1293 -480 139 -71 340 -190 340 -200 0 -6 -932 -480 -964 -491 -6 -2 43
48 109 110 214 202 284 274 244 251 -19 -12 -189 -113 -377 -225 l-341 -203
-278 93 c-779 262 -2410 780 -4583 1456 l-655 203 -48 140 c-72 211 -143 383
-229 554 -43 85 -78 156 -78 158 0 1 15 0 33 -3 17 -3 167 -28 332 -55z
m-22549 -1126 c-48 -190 -113 -564 -141 -805 -6 -54 -7 -56 -51 -77 -24 -12
-47 -22 -51 -22 -3 0 -4 108 0 241 3 132 4 239 2 237 -6 -7 -185 -419 -226
-521 l-43 -108 -86 -46 c-304 -165 -861 -494 -1287 -759 -144 -90 -267 -164
-273 -164 -7 0 -10 116 -11 343 -1 188 -4 389 -8 447 l-6 105 -122 -380 c-99
-307 -169 -536 -188 -620 -3 -11 -201 -82 -208 -75 -3 3 -17 115 -32 250 -15
135 -28 246 -30 248 -1 1 -58 -122 -125 -273 -68 -152 -128 -280 -134 -284
-24 -20 -1205 -495 -1715 -691 -500 -191 -989 -360 -1044 -360 -12 0 3 54 74
263 50 144 138 399 195 567 l105 305 -48 -46 c-270 -258 -995 -940 -998 -938
-1 2 139 217 312 478 172 260 312 475 309 478 -3 4 -1592 -341 -1626 -353 -9
-3 -11 -2 -5 4 6 5 150 57 320 117 1759 612 5494 1938 6995 2483 91 33 166 59
168 57 2 -1 -8 -47 -22 -101z m23074 -66 c1652 -596 4286 -1531 6562 -2329
241 -84 436 -155 434 -157 -2 -2 -365 76 -805 172 -441 97 -806 176 -812 176
-5 0 59 -102 143 -227 83 -126 230 -347 325 -492 l174 -264 -142 134 c-78 74
-315 299 -528 500 -212 202 -387 366 -389 364 -1 -1 83 -251 188 -556 104
-304 190 -557 190 -561 0 -14 -28 -8 -176 38 -401 124 -1606 588 -2495 960
l-106 45 -124 279 c-104 235 -125 275 -131 252 -3 -15 -16 -121 -28 -237 -12
-115 -24 -217 -28 -226 -6 -14 -19 -12 -107 20 l-100 36 -18 70 c-26 102 -85
288 -200 640 l-102 310 -6 -453 c-4 -250 -9 -455 -11 -456 -1 -2 -106 61 -231
140 -296 187 -712 436 -1002 601 -126 72 -272 155 -324 184 l-93 54 -53 130
c-57 142 -204 477 -211 485 -3 3 -4 -102 -2 -233 2 -130 1 -237 -2 -237 -3 0
-24 10 -48 22 -47 25 -46 23 -62 163 -18 154 -75 483 -114 654 -20 85 -36 158
-36 163 0 4 12 3 28 -3 15 -6 214 -78 442 -161z m-23257 -1615 l-3 -486 -592
-425 c-1589 -1138 -2645 -1903 -3098 -2245 l-185 -140 -398 78 c-219 42 -400
75 -402 73 -2 -2 98 -48 222 -103 124 -54 221 -101 216 -102 -12 -4 -1026 117
-1032 123 -24 23 437 473 714 696 203 163 619 458 760 538 l40 22 379 -116
c209 -63 381 -115 382 -113 1 1 -101 101 -227 221 -126 120 -229 222 -229 226
0 4 102 79 228 167 1016 716 2110 1421 3097 1996 72 42 130 76 130 77 0 0 -1
-219 -2 -487z m23302 301 c642 -376 1235 -750 2005 -1265 349 -233 939 -640
1120 -771 l23 -17 -159 -153 c-87 -84 -192 -184 -231 -222 -40 -38 -72 -71
-70 -72 1 -2 171 49 376 111 206 63 380 115 386 115 21 0 409 -263 608 -413
253 -191 456 -365 653 -561 156 -157 261 -273 253 -280 -6 -6 -1029 -128
-1039 -124 -6 2 98 50 230 108 131 57 238 105 237 106 -1 1 -187 -34 -413 -78
l-411 -80 -199 149 c-110 82 -359 266 -554 409 -564 413 -1369 993 -2789 2011
l-333 239 -2 485 c-1 484 -1 486 19 474 11 -7 142 -84 290 -171z m1110 -2174
c938 -725 2533 -1952 3405 -2619 333 -255 612 -470 620 -478 8 -8 -306 178
-698 413 -392 235 -714 425 -716 423 -3 -2 49 -177 115 -389 195 -630 217
-700 214 -700 -2 0 -162 277 -355 616 -194 338 -354 613 -357 610 -2 -2 7
-255 22 -561 14 -307 24 -560 21 -563 -30 -30 -995 738 -2045 1628 -140 118
-259 218 -264 221 -4 3 -26 136 -48 295 -21 158 -40 291 -41 295 -2 4 -45 -90
-97 -209 -52 -120 -96 -219 -98 -221 -2 -3 -41 32 -87 78 l-83 82 -8 377 c-4
207 -10 431 -14 496 l-6 120 -114 -357 -114 -357 -276 273 c-152 149 -349 341
-437 425 l-161 153 23 97 c35 149 81 392 103 547 17 116 51 391 51 417 0 4
143 -103 318 -239 174 -136 682 -528 1127 -873z m-24367 918 c29 -240 70 -485
118 -701 l37 -166 -129 -123 c-71 -67 -267 -259 -435 -426 -169 -167 -309
-300 -311 -296 -2 5 -54 164 -114 354 l-109 344 -6 -54 c-4 -30 -10 -250 -15
-488 l-7 -433 -80 -84 c-43 -47 -82 -85 -87 -85 -4 0 -49 97 -101 215 -67 153
-96 211 -101 198 -6 -14 -78 -530 -78 -556 0 -16 -1062 -901 -1546 -1289 -461
-369 -756 -589 -772 -574 -3 4 6 259 20 569 15 309 25 563 24 564 -1 1 -161
-276 -356 -617 -195 -340 -356 -618 -357 -616 -2 1 72 244 164 539 91 295 164
539 161 542 -4 4 -1076 -633 -1400 -832 -5 -2 -8 -2 -8 0 0 3 105 85 233 183
1856 1422 4363 3354 5101 3931 65 51 122 93 125 93 4 0 17 -87 29 -192z m371
-1533 c42 -103 158 -344 205 -425 32 -54 35 -65 23 -79 -49 -57 -1331 -1598
-1648 -1981 -469 -567 -912 -1108 -1121 -1371 l-157 -196 -400 -23 c-221 -13
-401 -28 -401 -32 0 -4 8 -8 18 -8 27 0 472 -73 468 -77 -6 -6 -1038 -144
-1049 -140 -12 4 99 217 194 374 236 386 496 722 914 1180 l40 44 352 -16
c193 -9 370 -15 393 -13 41 3 37 6 -234 157 l-275 155 47 55 c754 896 1550
1773 2241 2474 l265 267 47 -132 c25 -73 61 -169 78 -213z m22785 -165 c338
-352 509 -535 796 -850 581 -639 1260 -1425 1244 -1440 -5 -5 -130 -76 -279
-159 l-270 -151 65 0 c36 0 213 7 394 15 l330 15 34 -32 c19 -18 87 -91 151
-163 393 -438 703 -870 913 -1272 44 -85 65 -133 56 -133 -27 0 -1040 139
-1044 143 -3 2 104 22 236 43 132 21 240 41 240 44 0 3 -179 17 -398 30 l-398
24 -159 200 c-334 420 -1017 1249 -2115 2566 -355 426 -649 780 -653 787 -5 7
17 57 51 120 98 181 214 451 282 657 l22 68 100 -98 c55 -55 236 -241 402
-414z m-22237 -719 c40 -41 70 -78 67 -83 -3 -5 -70 -91 -148 -192 -593 -761
-1184 -1693 -1759 -2776 -222 -419 -653 -1302 -787 -1615 -14 -33 -18 -37 -23
-20 -3 11 -47 219 -98 463 -51 243 -96 439 -99 435 -4 -5 -90 -313 -191 -687
-110 -405 -185 -666 -187 -648 -2 16 8 272 23 567 14 296 24 539 22 541 -3 3
-103 -97 -822 -825 -198 -201 -353 -356 -344 -345 118 142 3458 4439 4034
5191 l140 183 50 -58 c27 -31 82 -90 122 -131z m21894 -666 c655 -849 2071
-2671 2949 -3795 277 -355 519 -665 538 -690 41 -53 -112 100 -706 704 l-432
440 0 -45 c0 -24 11 -282 25 -573 14 -291 24 -530 22 -532 -2 -2 -88 309 -192
691 -104 381 -190 693 -191 692 -1 -1 -46 -209 -99 -462 -53 -253 -98 -461
-100 -463 -1 -1 -28 55 -60 125 -794 1747 -1688 3272 -2570 4383 l-92 116 78
77 c43 42 97 102 121 132 40 52 44 54 59 37 9 -9 301 -386 650 -837z m-21527
372 c3 -23 6 -134 7 -247 l2 -205 -72 -205 c-309 -878 -635 -2117 -880 -3345
-104 -523 -260 -1415 -297 -1702 -4 -29 -10 -53 -14 -53 -5 0 -30 17 -57 38
-26 21 -66 51 -87 67 -38 29 -39 29 -26 6 7 -14 44 -73 81 -132 38 -60 69
-118 69 -131 0 -13 -16 -135 -36 -273 -20 -137 -37 -266 -40 -287 -2 -20 -19
-164 -39 -320 -66 -534 -147 -1319 -186 -1798 -11 -138 -15 -158 -95 -415
-148 -481 -269 -824 -285 -808 -4 5 -140 224 -303 487 -188 305 -296 471 -296
455 0 -13 25 -334 55 -713 30 -379 54 -690 52 -692 -2 -2 -79 243 -172 544
-92 301 -169 548 -170 550 -1 1 -159 -339 -350 -755 -192 -417 -352 -762 -356
-766 -4 -5 103 323 236 730 1110 3372 2194 6736 2688 8338 239 775 436 1450
425 1460 -1 1 -99 -259 -217 -579 -1516 -4115 -2274 -6204 -2702 -7444 l-74
-214 -373 -160 c-204 -89 -370 -163 -368 -165 2 -2 113 16 247 41 133 26 243
45 245 44 5 -6 -938 -490 -943 -484 -10 10 34 303 72 481 83 387 231 843 409
1267 l58 137 62 19 c524 161 695 218 679 224 -10 4 -148 28 -308 54 -159 26
-293 50 -297 53 -14 12 404 1095 677 1756 631 1525 1274 2840 1813 3710 275
443 503 757 748 1030 55 61 164 188 243 282 85 102 149 169 156 167 7 -3 15
-24 19 -47z m20641 -280 c66 -76 158 -182 204 -235 753 -872 1784 -2879 2771
-5392 158 -402 370 -965 370 -983 0 -9 -86 -27 -297 -61 -164 -27 -304 -52
-311 -55 -7 -4 92 -40 220 -80 128 -40 298 -93 377 -118 l143 -45 30 -66 c55
-120 178 -440 239 -620 116 -343 196 -653 242 -942 38 -232 41 -262 24 -258
-19 4 -937 482 -933 485 1 1 110 -18 241 -42 132 -25 243 -44 248 -42 4 1
-158 74 -360 161 -202 87 -373 163 -379 170 -6 6 -41 101 -79 211 -295 875
-1211 3401 -2467 6810 -464 1258 -447 1213 -447 1200 -3 -50 265 -952 606
-2040 529 -1692 1745 -5451 2603 -8050 77 -230 138 -421 136 -422 -1 -2 -160
339 -352 756 -192 417 -352 754 -355 747 -3 -6 -80 -252 -170 -546 -90 -294
-165 -523 -167 -510 -1 14 22 333 53 709 30 377 53 686 52 688 -2 1 -129 -201
-282 -450 -153 -249 -289 -467 -301 -485 l-22 -33 -32 78 c-45 107 -146 406
-245 728 l-84 271 -26 294 c-50 578 -115 1189 -180 1712 -20 153 -35 281 -34
285 1 4 0 10 -1 13 -1 3 -19 126 -40 274 l-38 268 68 108 c37 59 76 120 86
136 23 35 15 31 -89 -50 -42 -32 -79 -57 -81 -55 -3 2 -28 150 -56 329 -277
1750 -667 3401 -1093 4640 l-112 325 3 245 c4 311 2 308 116 172 44 -53 135
-159 201 -235z m-20165 -648 c459 -1437 821 -2926 1015 -4179 68 -438 152
-1181 134 -1188 -4 -2 -175 70 -379 158 -204 89 -373 160 -375 158 -4 -4 175
-206 370 -418 146 -158 391 -403 457 -456 l36 -29 82 -1188 c45 -654 80 -1191
77 -1194 -5 -4 -661 256 -994 394 -18 7 -33 11 -33 9 0 -13 808 -740 938 -844
l82 -66 0 -146 c0 -81 -2 -149 -5 -152 -3 -3 -137 32 -298 77 -160 45 -294 80
-296 79 -2 -2 115 -136 260 -299 l264 -297 7 -86 c14 -182 62 -1617 79 -2398
12 -526 6 -1554 -8 -1648 l-8 -50 -555 522 c-305 286 -556 520 -557 518 -2 -1
154 -423 346 -937 193 -513 349 -934 348 -935 -1 -1 -191 296 -422 661 -415
655 -420 662 -428 626 -4 -20 -64 -553 -132 -1185 -69 -632 -128 -1152 -131
-1155 -4 -3 -4 118 -1 269 4 151 12 2116 19 4365 15 5158 0 8900 -42 10305
-12 410 -22 649 -26 635 -7 -21 -163 -4265 -244 -6635 -90 -2642 -158 -5000
-160 -5595 l0 -80 -404 -390 c-222 -214 -403 -391 -401 -393 2 -2 396 232 600
356 6 3 -62 -75 -151 -173 -89 -99 -304 -340 -478 -535 -175 -195 -321 -356
-326 -358 -10 -4 -25 63 -55 258 -98 625 -117 1495 -49 2310 8 96 14 177 14
181 0 3 187 152 415 330 229 178 412 325 408 326 -4 2 -186 -26 -403 -62 -217
-35 -396 -62 -399 -60 -10 10 40 1079 84 1805 237 3878 711 6873 1315 8306 23
54 95 243 160 419 65 176 124 334 130 350 l12 30 14 -31 c7 -17 49 -145 94
-285z m19624 -54 c69 -187 150 -398 179 -470 613 -1487 1089 -4584 1317 -8580
41 -728 73 -1476 62 -1486 -4 -4 -182 22 -397 57 -214 35 -394 62 -399 61 -5
-2 177 -148 405 -326 l414 -322 12 -132 c31 -354 38 -552 38 -1062 -1 -566
-10 -749 -59 -1135 -27 -209 -66 -430 -76 -430 -6 0 -844 932 -928 1032 -23
28 -24 30 -5 20 16 -9 469 -280 566 -339 28 -17 -38 49 -396 396 l-404 391 -6
507 c-16 1234 -138 5002 -327 10078 -22 589 -46 1221 -52 1405 -15 387 -19
365 -37 -170 -49 -1489 -65 -6365 -40 -12335 6 -1463 9 -2678 7 -2700 -1 -22
-59 473 -127 1100 -68 627 -126 1160 -130 1184 l-6 43 -419 -661 c-230 -364
-420 -661 -422 -661 -2 0 12 42 31 93 29 80 626 1676 654 1750 6 15 9 27 6 27
-2 0 -253 -234 -557 -520 -535 -504 -553 -519 -560 -493 -34 123 -25 1617 17
2753 3 80 14 408 25 730 11 322 23 603 26 626 4 37 32 72 269 339 146 164 265
299 265 300 0 3 -42 -8 -385 -103 l-210 -59 -3 156 c-2 133 0 156 13 164 27
15 188 151 349 295 220 196 655 596 653 599 -1 1 -225 -88 -497 -198 -272
-110 -505 -202 -516 -205 -20 -5 -21 -2 -17 38 2 24 39 561 83 1193 l79 1150
53 45 c94 80 178 162 337 330 201 214 474 520 469 526 -3 2 -170 -68 -372
-156 -202 -88 -372 -160 -378 -160 -6 0 -7 21 -4 53 3 28 13 129 22 222 106
1156 428 2717 880 4275 111 380 334 1093 352 1124 7 13 11 5 146 -359z m-1740
-5394 c-3 -44 -10 -79 -14 -76 -4 2 -10 30 -14 60 -5 45 -3 61 11 79 10 13 19
23 21 21 2 -2 0 -40 -4 -84z m-9074 -3408 c-70 -46 -225 -201 -274 -273 l-38
-55 4 100 c5 110 21 157 75 207 47 45 89 57 193 58 l95 0 -55 -37z m1831 9
c39 -20 62 -41 84 -77 28 -44 30 -57 33 -154 l4 -106 -48 65 c-60 83 -171 193
-253 253 l-63 47 95 0 c84 0 101 -3 148 -28z m-622 -190 c138 -48 222 -101
326 -206 103 -103 166 -212 207 -352 l23 -79 0 -3040 c0 -2903 -1 -3043 -18
-3105 -78 -280 -286 -492 -562 -576 -84 -25 -106 -27 -316 -32 -252 -5 -329 3
-457 47 -111 39 -181 82 -275 171 -132 125 -214 267 -248 434 -18 88 -19 198
-19 3056 0 2029 3 2986 11 3030 41 256 204 483 429 599 159 82 210 90 535 88
l270 -3 94 -32z"/>
<path d="M27150 46135 c-907 -124 -1607 -851 -1700 -1764 -74 -738 292 -1476
929 -1871 585 -363 1302 -395 1921 -86 543 272 933 777 1054 1368 49 240 49
530 0 783 -164 840 -855 1477 -1709 1575 -121 13 -378 11 -495 -5z m595 -375
c146 -31 264 -73 400 -140 159 -79 287 -172 415 -300 252 -253 406 -563 456
-918 21 -153 14 -415 -15 -550 -118 -549 -499 -990 -1026 -1187 -408 -152
-853 -131 -1250 60 -280 134 -553 389 -709 661 -306 532 -282 1176 62 1689
217 324 541 557 918 660 162 45 252 55 459 50 145 -2 214 -8 290 -25z"/>
<path d="M17555 45723 c16 -42 97 -379 135 -560 70 -339 120 -671 156 -1028
21 -218 30 -822 15 -1040 -49 -708 -190 -1464 -383 -2053 -27 -85 -48 -156
-46 -158 3 -2 32 38 65 89 289 440 491 953 578 1470 49 295 62 541 46 917 -50
1191 -236 2035 -514 2338 -41 44 -64 55 -52 25z"/>
<path d="M37329 45693 c-165 -172 -296 -534 -393 -1090 -108 -613 -156 -1566
-102 -1981 69 -523 221 -987 467 -1424 59 -106 191 -308 200 -308 4 0 -13 60
-38 133 -251 754 -422 1878 -399 2627 15 483 70 950 171 1455 42 209 107 484
139 588 8 26 11 47 7 47 -4 0 -27 -21 -52 -47z"/>
</g>
</svg>
